<?xml version="1.0" encoding="utf-8"?>
<!-- Generator: Adobe Illustrator 27.2.0, SVG Export Plug-In . SVG Version: 6.00 Build 0)  -->
<svg version="1.1" id="Layer_1" xmlns="http://www.w3.org/2000/svg" xmlns:xlink="http://www.w3.org/1999/xlink" x="0px" y="0px"
	 viewBox="0 0 850.5 740.8" style="enable-background:new 0 0 850.5 740.8;" xml:space="preserve">
<style type="text/css">
	.st0{fill:#F2F2F2;}
	.st1{fill:#2F2E41;}
	.st2{fill:#FFFFFF;}
	.st3{fill:#E6E6E6;}
	.st4{fill:#348EC3;}
	.st5{fill:#9E616A;}
	.st6{fill:#CACACA;}
	.st7{fill:#3F3D56;}
</style>
<path class="st0" d="M766.9,385.5c0.1,91.7-35.3,179.8-98.8,245.9c-3.8,4-7.8,7.9-11.8,11.7c-6.1,5.8-12.5,11.5-19.1,16.9
	c-61.4,50.6-138,79-217.6,80.7c-2.6,0.1-5.3,0.1-8,0.1c-63.4,0-143.2-33.9-215.6-80.8c-6-3.9-11.9-7.9-17.8-11.9
	c-2.8-1.9-5.5-3.8-8.2-5.7c-27.9-19.7-54.4-41.4-79.3-64.8c-16.3-15.3-31.6-31.6-45.8-48.9C-10.7,460.1-23,398.2,56.3,385.5
	c9.4-1.5,18.5-3.1,27.3-4.8c12.8-2.5,25.1-5.1,36.8-8c15.8-3.8,30.6-8,44.4-12.5c4.7-1.5,9.2-3,13.7-4.6
	c65.7-23.1,109.7-53.2,139.7-85.9c5.1-5.5,9.8-11.1,14-16.8c6.6-8.6,12.5-17.7,17.8-27.1c7.3-13.1,13.5-26.9,18.4-41l0.3-0.8
	c23.8-68.7,16.6-132.5,42.9-153.8C524-61,663.9,68.9,729.6,222.2c3.3,7.7,6.4,15.5,9.3,23.3c1.3,3.5,2.6,7,3.8,10.5
	c3.2,9.1,6.1,18.3,8.7,27.5c1,3.5,2,7,2.9,10.5c1,3.8,1.9,7.5,2.8,11.3C763.4,332.7,766.9,359.9,766.9,385.5z"/>
<path class="st1" d="M419.6,740.7c-2.6,0.1-5.3,0.1-8,0.1c-63.4,0-143.2-33.9-215.6-80.8c-6-3.9-11.9-7.8-17.8-11.9l5.2-31.4
	L339.5,596l78.4,60L419.6,740.7z"/>
<path class="st2" d="M427.1,180h-22.3c-1.4,0-2.6,1.2-2.6,2.6v22.3c0,1.4,1.2,2.6,2.6,2.6c0,0,0,0,0,0h22.3c1.4,0,2.6-1.2,2.6-2.6
	v-22.3C429.7,181.2,428.5,180.1,427.1,180z"/>
<path class="st3" d="M427.1,218h-22.3c-1.4,0-2.6,1.2-2.6,2.6v22.3c0,1.4,1.2,2.6,2.6,2.6c0,0,0,0,0,0h22.3c1.4,0,2.6-1.2,2.6-2.6
	v-22.3C429.7,219.2,428.5,218,427.1,218z"/>
<path class="st3" d="M427.1,255.9h-22.3c-1.4,0-2.6,1.2-2.6,2.6v22.3c0,1.4,1.2,2.6,2.6,2.6c0,0,0,0,0,0h22.3c1.4,0,2.6-1.2,2.6-2.6
	v-22.3C429.7,257.1,428.5,256,427.1,255.9z"/>
<path class="st3" d="M429.7,296c-0.2-1.2-1.3-2.1-2.6-2.1h-22.3c-1.4,0-2.6,1.2-2.6,2.6v22.3c0,1.4,1.2,2.6,2.6,2.6c0,0,0,0,0,0
	h22.3c1.4,0,2.6-1.2,2.6-2.6v-22.3C429.7,296.3,429.7,296.2,429.7,296z"/>
<path class="st3" d="M428.1,332c-0.3-0.1-0.7-0.2-1-0.2h-22.3c-1.4,0-2.6,1.2-2.6,2.6c0,0,0,0,0,0v22.3c0,1.4,1.1,2.6,2.6,2.6
	c0,0,0,0,0,0h22.3c1.4,0,2.6-1.2,2.6-2.6v-22.3C429.7,333.4,429.1,332.5,428.1,332z"/>
<path class="st3" d="M473.9,180h-22.3c-1.4,0-2.6,1.2-2.6,2.6v22.3c0,1.4,1.2,2.6,2.6,2.6c0,0,0,0,0,0h22.3c1.4,0,2.6-1.2,2.6-2.6
	v-22.3C476.5,181.2,475.3,180.1,473.9,180z"/>
<path class="st4" d="M473.9,218h-22.3c-1.4,0-2.6,1.2-2.6,2.6v22.3c0,1.4,1.2,2.6,2.6,2.6c0,0,0,0,0,0h22.3c1.4,0,2.6-1.2,2.6-2.6
	v-22.3C476.5,219.2,475.3,218,473.9,218z"/>
<path class="st4" d="M473.9,255.9h-22.3c-1.4,0-2.6,1.2-2.6,2.6v22.3c0,1.4,1.2,2.6,2.6,2.6c0,0,0,0,0,0h22.3c1.4,0,2.6-1.2,2.6-2.6
	v-22.3C476.5,257.1,475.3,256,473.9,255.9z"/>
<path class="st4" d="M473.9,293.9h-22.3c-1.1,0-2.1,0.7-2.5,1.8c-0.1,0.3-0.1,0.5-0.1,0.8v22.3c0,1.4,1.2,2.6,2.6,2.6c0,0,0,0,0,0
	h22.3c1.4,0,2.6-1.2,2.6-2.6v-22.3C476.5,295.1,475.3,293.9,473.9,293.9z"/>
<path class="st3" d="M473.9,331.8h-22.3c-1.4,0-2.6,1.2-2.6,2.6c0,0,0,0,0,0v22.3c0,1.4,1.2,2.6,2.6,2.6c0,0,0,0,0,0h22.3
	c1.4,0,2.6-1.2,2.6-2.6v-22.3C476.5,333,475.3,331.9,473.9,331.8z"/>
<path class="st4" d="M520.6,180h-22.3c-1.4,0-2.6,1.2-2.6,2.6v22.3c0,1.4,1.2,2.6,2.6,2.6c0,0,0,0,0,0h22.3c1.4,0,2.6-1.2,2.6-2.6
	v-22.3C523.2,181.2,522.1,180.1,520.6,180z"/>
<path class="st4" d="M520.6,218h-22.3c-1.4,0-2.6,1.2-2.6,2.6v22.3c0,1.4,1.2,2.6,2.6,2.6c0,0,0,0,0,0h22.3c1.4,0,2.6-1.2,2.6-2.6
	v-22.3C523.2,219.2,522.1,218,520.6,218z"/>
<path class="st3" d="M520.6,255.9h-22.3c-1.4,0-2.6,1.2-2.6,2.6v22.3c0,1.4,1.2,2.6,2.6,2.6c0,0,0,0,0,0h22.3c1.4,0,2.6-1.2,2.6-2.6
	v-22.3C523.2,257.1,522.1,256,520.6,255.9z"/>
<path class="st4" d="M520.6,293.9h-22.3c-1.4,0-2.6,1.2-2.6,2.6v22.3c0,1.4,1.2,2.6,2.6,2.6c0,0,0,0,0,0h22.3c1.4,0,2.6-1.2,2.6-2.6
	v-22.3C523.2,295.1,522.1,293.9,520.6,293.9z"/>
<path class="st4" d="M520.6,331.8h-22.3c-1.4,0-2.6,1.2-2.6,2.6c0,0,0,0,0,0v22.3c0,1.4,1.2,2.6,2.6,2.6c0,0,0,0,0,0h22.3
	c1.4,0,2.6-1.2,2.6-2.6v-22.3C523.2,333,522.1,331.9,520.6,331.8z"/>
<path class="st4" d="M567.4,180h-22.3c-1.4,0-2.6,1.2-2.6,2.6v22.3c0,1.4,1.2,2.6,2.6,2.6c0,0,0,0,0,0h22.3c1.4,0,2.6-1.2,2.6-2.6
	v-22.3C570,181.2,568.8,180.1,567.4,180z"/>
<path class="st2" d="M567.4,218h-22.3c-1.4,0-2.6,1.2-2.6,2.6v22.3c0,1.4,1.2,2.6,2.6,2.6c0,0,0,0,0,0h22.3c1.4,0,2.6-1.2,2.6-2.6
	v-22.3C570,219.2,568.8,218,567.4,218z"/>
<path class="st2" d="M567.4,255.9h-22.3c-1.4,0-2.6,1.2-2.6,2.6v22.3c0,1.4,1.2,2.6,2.6,2.6c0,0,0,0,0,0h22.3c1.4,0,2.6-1.2,2.6-2.6
	v-22.3C570,257.1,568.8,256,567.4,255.9z"/>
<path class="st3" d="M567.4,293.9h-22.3c-1.4,0-2.6,1.2-2.6,2.6v22.3c0,1.4,1.2,2.6,2.6,2.6c0,0,0,0,0,0h22.3c1.4,0,2.6-1.2,2.6-2.6
	v-22.3C570,295.1,568.8,293.9,567.4,293.9z"/>
<path class="st4" d="M567.4,331.8h-22.3c-1.4,0-2.6,1.2-2.6,2.6c0,0,0,0,0,0v22.3c0,1.4,1.2,2.6,2.6,2.6c0,0,0,0,0,0h22.3
	c1.4,0,2.6-1.2,2.6-2.6v-22.3C570,333,568.8,331.9,567.4,331.8z"/>
<path class="st2" d="M614.1,180h-22.3c-1.4,0-2.6,1.2-2.6,2.6v22.3c0,1.4,1.2,2.6,2.6,2.6h22.3c1.4,0,2.6-1.2,2.6-2.6v-22.3
	C616.7,181.2,615.6,180.1,614.1,180z"/>
<path class="st2" d="M614.1,218h-22.3c-1.4,0-2.6,1.2-2.6,2.6v22.3c0,1.4,1.2,2.6,2.6,2.6h22.3c1.4,0,2.6-1.2,2.6-2.6v-22.3
	C616.7,219.2,615.6,218,614.1,218z"/>
<path class="st2" d="M614.1,255.9h-22.3c-1.4,0-2.6,1.2-2.6,2.6v22.3c0,1.4,1.2,2.6,2.6,2.6c0,0,0,0,0,0h22.3c1.4,0,2.6-1.2,2.6-2.6
	v-22.3C616.7,257.1,615.6,256,614.1,255.9z"/>
<path class="st4" d="M614.1,293.9h-22.3c-1.4,0-2.6,1.2-2.6,2.6v22.3c0,1.4,1.2,2.6,2.6,2.6c0,0,0,0,0,0h22.3c1.4,0,2.6-1.2,2.6-2.6
	v-22.3C616.7,295.1,615.6,293.9,614.1,293.9z"/>
<path class="st3" d="M614.1,331.8h-22.3c-1.4,0-2.6,1.2-2.6,2.6c0,0,0,0,0,0v22.3c0,1.4,1.2,2.6,2.6,2.6c0,0,0,0,0,0h22.3
	c1.4,0,2.6-1.2,2.6-2.6v-22.3C616.7,333,615.6,331.9,614.1,331.8z"/>
<path class="st2" d="M660.9,180h-22.3c-1.4,0-2.6,1.2-2.6,2.6v22.3c0,1.4,1.2,2.6,2.6,2.6h22.3c1.4,0,2.6-1.2,2.6-2.6v-22.3
	C663.5,181.2,662.3,180.1,660.9,180z"/>
<path class="st2" d="M660.9,218h-22.3c-1.4,0-2.6,1.2-2.6,2.6v22.3c0,1.4,1.2,2.6,2.6,2.6h22.3c1.4,0,2.6-1.2,2.6-2.6v-22.3
	C663.5,219.2,662.3,218,660.9,218z"/>
<path class="st4" d="M660.9,255.9h-22.3c-1.4,0-2.6,1.2-2.6,2.6v22.3c0,1.4,1.2,2.6,2.6,2.6c0,0,0,0,0,0h22.3c1.4,0,2.6-1.2,2.6-2.6
	v-22.3C663.5,257.1,662.3,256,660.9,255.9z"/>
<path class="st3" d="M660.9,293.9h-22.3c-1.4,0-2.6,1.2-2.6,2.6v22.3c0,1.4,1.2,2.6,2.6,2.6c0,0,0,0,0,0h22.3c1.4,0,2.6-1.2,2.6-2.6
	v-22.3C663.5,295.1,662.3,293.9,660.9,293.9z"/>
<path class="st2" d="M660.9,331.8h-22.3c-1.4,0-2.6,1.2-2.6,2.6c0,0,0,0,0,0v22.3c0,1.4,1.2,2.6,2.6,2.6c0,0,0,0,0,0h22.3
	c1.4,0,2.6-1.2,2.6-2.6v-22.3C663.5,333,662.3,331.9,660.9,331.8z"/>
<path class="st4" d="M707.7,180h-22.3c-1.4,0-2.6,1.2-2.6,2.6v22.3c0,1.4,1.2,2.6,2.6,2.6h22.3c1.4,0,2.6-1.2,2.6-2.6v-22.3
	C710.3,181.2,709.1,180.1,707.7,180z"/>
<path class="st4" d="M707.7,218h-22.3c-1.4,0-2.6,1.2-2.6,2.6v22.3c0,1.4,1.2,2.6,2.6,2.6h22.3c1.4,0,2.6-1.2,2.6-2.6v-22.3
	C710.3,219.2,709.1,218,707.7,218z"/>
<path class="st3" d="M707.7,255.9h-22.3c-1.4,0-2.6,1.2-2.6,2.6v22.3c0,1.4,1.2,2.6,2.6,2.6c0,0,0,0,0,0h22.3c1.4,0,2.6-1.2,2.6-2.6
	v-22.3C710.3,257.1,709.1,256,707.7,255.9z"/>
<path class="st2" d="M707.7,293.9h-22.3c-1.4,0-2.6,1.2-2.6,2.6v22.3c0,1.4,1.2,2.6,2.6,2.6c0,0,0,0,0,0h22.3c1.4,0,2.6-1.2,2.6-2.6
	v-22.3C710.3,295.1,709.1,293.9,707.7,293.9z"/>
<path class="st4" d="M707.7,331.8h-22.3c-1.4,0-2.6,1.2-2.6,2.6c0,0,0,0,0,0v22.3c0,1.4,1.2,2.6,2.6,2.6c0,0,0,0,0,0h22.3
	c1.4,0,2.6-1.2,2.6-2.6v-22.3C710.3,333,709.1,331.9,707.7,331.8z"/>
<path class="st4" d="M754.4,180h-22.3c-1.4,0-2.6,1.2-2.6,2.6v22.3c0,1.4,1.2,2.6,2.6,2.6h22.3c1.4,0,2.6-1.2,2.6-2.6v-22.3
	C757,181.2,755.9,180.1,754.4,180z"/>
<path class="st4" d="M754.4,218h-22.3c-1.4,0-2.6,1.2-2.6,2.6v22.3c0,1.4,1.2,2.6,2.6,2.6h22.3c1.4,0,2.6-1.2,2.6-2.6v-22.3
	C757,219.2,755.9,218,754.4,218z"/>
<path class="st3" d="M754.4,255.9h-22.3c-1.4,0-2.6,1.2-2.6,2.6v22.3c0,1.4,1.2,2.6,2.6,2.6c0,0,0,0,0,0h22.3c1.4,0,2.6-1.2,2.6-2.6
	v-22.3C757,257.1,755.9,256,754.4,255.9z"/>
<path class="st4" d="M754.4,293.9h-22.3c-1.4,0-2.6,1.2-2.6,2.6v22.3c0,1.4,1.2,2.6,2.6,2.6c0,0,0,0,0,0h22.3c1.4,0,2.6-1.2,2.6-2.6
	v-22.3C757,295.1,755.9,293.9,754.4,293.9z"/>
<path class="st4" d="M754.4,331.8h-22.3c-1.4,0-2.6,1.2-2.6,2.6c0,0,0,0,0,0v22.3c0,1.4,1.2,2.6,2.6,2.6c0,0,0,0,0,0h22.3
	c1.4,0,2.6-1.2,2.6-2.6v-22.3C757,333,755.9,331.9,754.4,331.8z"/>
<path class="st3" d="M801.2,180h-22.3c-1.4,0-2.6,1.2-2.6,2.6v22.3c0,1.4,1.2,2.6,2.6,2.6h22.3c1.4,0,2.6-1.2,2.6-2.6v-22.3
	C803.8,181.2,802.6,180.1,801.2,180z"/>
<path class="st4" d="M801.2,218h-22.3c-1.4,0-2.6,1.2-2.6,2.6v22.3c0,1.4,1.2,2.6,2.6,2.6h22.3c1.4,0,2.6-1.2,2.6-2.6v-22.3
	C803.8,219.2,802.6,218,801.2,218z"/>
<path class="st4" d="M801.2,255.9h-22.3c-1.4,0-2.6,1.2-2.6,2.6v22.3c0,1.4,1.2,2.6,2.6,2.6c0,0,0,0,0,0h22.3c1.4,0,2.6-1.2,2.6-2.6
	v-22.3C803.8,257.1,802.6,256,801.2,255.9z"/>
<path class="st4" d="M801.2,293.9h-22.3c-1.4,0-2.6,1.2-2.6,2.6v22.3c0,1.4,1.2,2.6,2.6,2.6c0,0,0,0,0,0h22.3c1.4,0,2.6-1.2,2.6-2.6
	v-22.3C803.8,295.1,802.6,293.9,801.2,293.9z"/>
<path class="st3" d="M801.2,331.8h-22.3c-1.4,0-2.6,1.2-2.6,2.6c0,0,0,0,0,0v22.3c0,1.4,1.2,2.6,2.6,2.6c0,0,0,0,0,0h22.3
	c1.4,0,2.6-1.2,2.6-2.6v-22.3C803.8,333,802.6,331.9,801.2,331.8z"/>
<path class="st3" d="M847.9,180h-22.3c-1.4,0-2.6,1.2-2.6,2.6v22.3c0,1.4,1.2,2.6,2.6,2.6h22.3c1.4,0,2.6-1.2,2.6-2.6v-22.3
	C850.5,181.2,849.4,180.1,847.9,180z"/>
<path class="st3" d="M847.9,218h-22.3c-1.4,0-2.6,1.2-2.6,2.6v22.3c0,1.4,1.2,2.6,2.6,2.6h22.3c1.4,0,2.6-1.2,2.6-2.6v-22.3
	C850.5,219.2,849.4,218,847.9,218z"/>
<path class="st4" d="M847.9,255.9h-22.3c-1.4,0-2.6,1.2-2.6,2.6v22.3c0,1.4,1.2,2.6,2.6,2.6c0,0,0,0,0,0h22.3c1.4,0,2.6-1.2,2.6-2.6
	v-22.3C850.5,257.1,849.4,256,847.9,255.9z"/>
<path class="st3" d="M847.9,293.9h-22.3c-1.4,0-2.6,1.2-2.6,2.6v22.3c0,1.4,1.2,2.6,2.6,2.6c0,0,0,0,0,0h22.3c1.4,0,2.6-1.2,2.6-2.6
	v-22.3C850.5,295.1,849.4,293.9,847.9,293.9z"/>
<path class="st3" d="M847.9,331.8h-22.3c-1.4,0-2.6,1.2-2.6,2.6c0,0,0,0,0,0v22.3c0,1.4,1.2,2.6,2.6,2.6c0,0,0,0,0,0h22.3
	c1.4,0,2.6-1.2,2.6-2.6v-22.3C850.5,333,849.4,331.9,847.9,331.8z"/>
<polygon class="st1" points="336.1,660.1 335.5,660.1 336,660 "/>
<circle id="b6132315-04e2-4cdb-a713-107c9cd58b0b" class="st5" cx="282.8" cy="176.7" r="68.3"/>
<path id="f4304bdd-ba2d-4fff-b404-410205410c5d-585" class="st1" d="M342.6,126.6c0,0,17.9-34.2-21.4-37.3c0,0-33.5-30.4-67.7-5.6
	c0,0-18.6,0-28.8,21.1c0,0-14.7-5.6-17.9,9.3c0,0-10.7,31.1,0,59c10.7,27.9,14.3,31.1,14.3,31.1s-17.6-58.6,25.3-61.7
	c42.9-3.1,90.9-29.9,94.5,4.3c3.6,34.2,9,42.6,9,42.6S383.7,140.6,342.6,126.6z"/>
<path class="st6" d="M459.5,345.1l-0.2,1.2l-2.5,13l-17.1,90.2l-1,5.3l-2.1,11.2l-2.9,15.3l-6.4,34l-1.8,9.7l-0.7,3.6l-0.2,1.3
	l-1.9,10.1l-0.6,3l-4.7,34.5l-4.1,30.1l13.6,13.6l-8.1,8.1l-5.3,30.5l0,0.1H196c-8.8-5.7-17.5-11.6-26-17.6l1.8-13.4
	c0,0,6.2-23.9,3.6-26.8c-2.6-2.9-8.2-8-8.2-8l7.1-16.6l1-2.3l-1.7-34.4l0-0.8l-0.5-11.4l-0.1-1.5l-0.1-2.2l-2.1-43.7l0-0.7
	l-0.6-13.2l-0.6-12.6l-0.3-5.3l-2.6-53.1l-1.7-36.1l-1.5-31.4l6.1-2.1l65.4-22.2l27.1-35.2l56.3,0.4l27.6,0.2l46,42.7l10.5,5l0.1,0
	l7.5,3.6l19,9.1l20.1,9.6l10.3,4.9L459.5,345.1z"/>
<path class="st5" d="M269.1,557.6c-15.6,6-33.1-1.7-39.2-17.3c-0.6-1.7-1.1-3.4-1.5-5.1L121.9,520l37-41.9l95.5,20.8
	c16.7-2.1,31.9,9.7,34.1,26.4C290.3,539.2,282.3,552.6,269.1,557.6L269.1,557.6z"/>
<path class="st6" d="M221.6,481.4c-2-2.5-4.8-4.2-7.9-4.9l-43.7-9.1l-4.5-0.9c-5.3-1.1-9.8-4.4-12.5-9.1c-1.4-2.4-2.2-5.1-2.5-7.9
	c-0.2-2.5,0.1-5.1,0.9-7.5l15.1-45.6l9.8-29.6c1.2-3.6,1.9-7.3,2.1-11c0.5-10.4-2.7-20.7-9.1-28.9c-11.5-14.8-31.5-20.4-49-13.6
	c-0.2,0.1-0.5,0.2-0.8,0.3c-12.4,5-21.8,15.5-25.3,28.4l-10.7,38.9l-22,80.1c-8.5,30.8,9.6,62.6,40.4,71c2.8,0.8,5.7,1.3,8.6,1.7
	l63,7.4l29.1,3.4c7,0.8,13.4-3.8,14.8-10.7c0-0.2,0.1-0.4,0.1-0.6l0.7-4.3l5.9-36.4l0.1-0.4C225,488.2,224,484.4,221.6,481.4z"/>
<path class="st5" d="M337,558.7c16.3,3.8,32.6-6.4,36.4-22.7c0.4-1.7,0.7-3.5,0.7-5.3l103.4-30l-42.6-36.3l-91.6,34
	c-16.8,0.2-30.2,14.1-30,30.9C313.4,543.5,323.3,555.6,337,558.7L337,558.7z"/>
<path class="st6" d="M528.8,433.7l-49.2-113.1c-4-9.3-11.2-16.9-20.3-21.4c-2.8-1.4-5.7-2.5-8.8-3.2c-0.5-0.1-0.9-0.2-1.4-0.3
	c-6.4-1.4-13.1-1.3-19.5,0.4c-11.8,3-21.7,10.9-27.3,21.7c0,0-0.1,0.1-0.1,0.1c-6.3,12.2-6.4,26.6-0.4,38.9l0.6,1.2l34.7,69.8
	c4.6,9.3,0.8,20.7-8.5,25.3c-0.6,0.3-1.3,0.6-2,0.9l-2.4,0.9l-43.9,15.8c-6.8,2.4-10.5,9.9-8.3,16.8l0.1,0.4l12.3,39.4
	c0.1,0.2,0.1,0.4,0.2,0.5c0.1,0.3,0.2,0.7,0.4,1c2.7,6.1,9.4,9.3,15.8,7.5l23.7-6.2l4.8-1.3l61.2-16.1c30.8-8.1,49.2-39.8,41.1-70.6
	C530.9,439.1,529.9,436.4,528.8,433.7L528.8,433.7z"/>
<path class="st7" d="M44.9,528.7c14.2,17.3,29.5,33.6,45.8,48.9h452c9.1,0,16.4,7.4,16.4,16.4l0.7,114.5
	c27.8-12.8,53.8-29.1,77.5-48.5c6.6-5.4,12.9-11,19.1-16.9c4-3.8,8-7.7,11.8-11.7c28.8-30,52.1-64.7,68.8-102.7H44.9z"/>
<path class="st2" d="M668,631.4c-3.8,4-7.8,7.9-11.8,11.7H560v-11.7H668z"/>
<path class="st7" d="M458.6,255.9c-1-1.8-2.8-2.9-4.9-2.9H125.9c-3.1,0-5.5,2.5-5.5,5.5v196.2h338.9V258.6
	C459.3,257.7,459.1,256.8,458.6,255.9z"/>
<path class="st7" d="M120.1,449.5v24.2c0,4.2,3.4,7.6,7.6,7.6c0,0,0,0,0,0h125.1v47.8h-1.7c-0.5,0-1,0.4-1,1c0,0,0,0,0,0v3.3
	c0,0.5,0.4,1,1,1c0,0,0,0,0,0h77.7c0.5,0,1-0.4,1-1c0,0,0,0,0,0v-3.3c0-0.5-0.4-1-1-1c0,0,0,0,0,0h-1.7v-47.8h125.1
	c4.2,0,7.6-3.4,7.6-7.6c0,0,0,0,0,0v-24.2H120.1z"/>
<circle class="st4" cx="285.9" cy="348.7" r="31.3"/>
<path class="st4" d="M365.7,173h-5c0-37.8-37.4-62.6-75.1-62.6c-5.5,0-11,0.5-16.4,1.6c-6.1,1.2-12.4,2.7-18.5,4.6
	c-24.4,7.5-47,21.9-47,56.5c0,6.7,0.8,13.4,2.5,19.9l-4.8,1.3c-1.8-6.9-2.7-14-2.7-21.1c0-30.2,12.4-50.9,33.8-63.3
	c11.2-6.5,25-10.7,40.7-12.7c6.5-0.9,13.2-1.1,19.8-0.6C336.3,99.5,365.7,132.8,365.7,173z"/>
<path class="st4" d="M374,175.8l-2-14.6c-0.5-3.7-2.3-7.1-5-9.6c-3.6-3.3-8.5-4.8-13.2-4l-3.1,0.4c-1.7,0.2-3.3,1.1-4.3,2.5
	c-1.1,1.4-1.5,3.1-1.3,4.9l4.5,33.5c0.4,2.8,2.5,5,5.3,5.6c0.4,0.1,0.8,0.1,1.2,0.1c0.3,0,0.6,0,0.9-0.1l3.5-0.5
	c4.3-0.6,8.2-2.9,10.7-6.4c0.3-0.4,0.5-0.8,0.8-1.2C373.8,183.3,374.6,179.5,374,175.8z"/>
<path class="st2" d="M348.6,148.7c-0.9,0.4-1.7,1.1-2.3,1.9c-1.1,1.4-1.5,3.1-1.3,4.9l4.5,33.5c0.4,2.8,2.5,5,5.3,5.6L348.6,148.7z"
	/>
<path class="st7" d="M374,175.8l-2-14.6c-0.5-3.7-2.3-7.1-5-9.6l4.5,33.4c0.1,0.5,0.2,1.1,0.4,1.6
	C373.8,183.3,374.6,179.5,374,175.8z"/>
<ellipse transform="matrix(0.9909 -0.1344 0.1344 0.9909 -20.8612 49.6836)" class="st7" cx="357.5" cy="179.3" rx="2.5" ry="7"/>
<ellipse transform="matrix(0.9909 -0.1344 0.1344 0.9909 -18.4688 49.1169)" class="st7" cx="354.5" cy="161.3" rx="2.5" ry="7"/>
<ellipse transform="matrix(0.9909 -0.1344 0.1344 0.9909 -19.2373 51.7346)" class="st7" cx="373.5" cy="168.3" rx="2.5" ry="7"/>
<path class="st7" d="M285.5,110.4c-5.5,0-11,0.5-16.4,1.6c-6.1,1.2-12.4,2.7-18.5,4.6c-9.6-0.5-16.8-3-18.2-6.8
	c11.2-6.5,25-10.7,40.7-12.7c6.5-0.9,13.2-1.1,19.8-0.6c1.4,0.8,2.4,2.2,2.7,3.8C296.1,103.7,292.1,107.4,285.5,110.4z"/>
<path class="st4" d="M221.7,207.7l-7.7-32c-0.6-2.4-2.5-4.2-4.9-4.5c-0.3-0.1-0.7-0.1-1-0.1c-0.5,0-0.9,0.1-1.4,0.2l-3,0.7
	c-8,1.9-12.9,10-11,18l3.5,14.4c0.8,3.4,2.7,6.4,5.3,8.6c0.4,0.4,0.9,0.7,1.4,1c3.4,2.1,7.5,2.8,11.4,1.8l3-0.7
	c0.8-0.2,1.5-0.5,2.2-1C221.4,212.5,222.3,210.1,221.7,207.7z"/>
<ellipse transform="matrix(0.9722 -0.234 0.234 0.9722 -39.9492 53.115)" class="st7" cx="203.9" cy="194.9" rx="2.5" ry="7"/>
<ellipse transform="matrix(0.9722 -0.234 0.234 0.9722 -40.9286 50.8586)" class="st7" cx="193.9" cy="197.9" rx="2.5" ry="7"/>
<path class="st2" d="M222.2,207.6l-7.7-32c-0.6-2.6-2.7-4.5-5.3-4.9l10.5,43.7C221.8,212.8,222.8,210.1,222.2,207.6z"/>
<path class="st7" d="M194.5,183.6c-0.2-0.9-0.6-1.7-1.2-2.5c-1.1,2.8-1.3,5.9-0.6,8.8l3.5,14.4c0.8,3.4,2.7,6.4,5.3,8.6L194.5,183.6
	z"/>
</svg>
