<?xml version="1.0" encoding="UTF-8"?>
<svg id="Layer_1" data-name="Layer 1" xmlns="http://www.w3.org/2000/svg" viewBox="0 0 112.74 112.9">
  <defs>
    <style>
      .cls-1 {
        fill: #333;
      }

      .cls-2 {
        fill: #efefef;
      }
    </style>
  </defs>
  <g>
    <path class="cls-2" d="m18.14,40.1l.19-.2c-5.66-3.99-8.88-8.42-9.66-13.4C3.19,35.2,0,45.49,0,56.53c0,3.06.25,6.06.72,8.99,5.44-9,11.36-17.37,17.61-25.23l-.19-.19Z"/>
    <path class="cls-2" d="m72.47,33.91c5.61-4.44,8.31-8.89,8.31-13.73,0-6.57-3.48-9.86-10.63-9.86-2.71,0-6.58.96-11.79,2.9-2.9.96-4.45,1.74-4.64,1.93,3.48,4.45,5.41,8.89,5.61,13.15-.19.58-.19,1.16-.39,1.35-.97-2.13-1.36-3.48-1.55-3.67-1.35-3.87-3.67-6.96-6.57-9.47-.96.58-1.94,1.16-2.9,1.55.19,0,.39,0,.58.19-.77.19-1.35.58-1.74.97-4.06.96-11.41,8.31-22.24,21.85,3.67,1.74,8.7,2.71,14.69,2.71,13.92,0,24.94-3.29,33.26-9.86Z"/>
    <path class="cls-2" d="m56.37,0c-8.55,0-16.66,2.16-23.92,5.16h0c7.54,0,14.12,2.87,19.72,8.09,7.93-3.48,14.69-5.14,20.3-5.14,9.09,0,14.12,3.13,15.27,9.32.77,4.06-.19,7.75-3.09,11.04-6.77,7.93-17.21,13.16-31.52,15.67-5.22.97-9.86,1.36-13.73,1.36-6.19,0-11.6-.96-16.24-2.9-5.8,8.7-11.02,17.4-15.66,25.72-1.42,2.53-2.83,4.89-4.25,7.1,3.32,9.32,9.02,17.51,16.37,23.84,3.98.64,6.98.97,8.95.97,12.57,0,24.94-5.22,37.51-15.47,1.93-1.55,3.09-2.13,3.48-1.93.58.19.19.97-1.16,2.32-3.09,2.9-6.57,6.19-10.64,9.67-8.44,7.28-17.16,11.44-25.93,12.48,7.41,3.59,15.73,5.6,24.52,5.6,31.13,0,56.37-25.32,56.37-56.45S87.5,0,56.37,0Z"/>
    <path class="cls-2" d="m11.21,22.79c-.11,1.34-.08,2.72.17,4.16.39,2.32,2.9,5.8,7.74,10.63l.77.77c7.54-8.7,15.47-15.66,24.17-20.69,2.13-1.16,3.87-2.13,5.22-2.71-5.8-4.44-11.99-6.57-18.75-6.57-1.36,0-2.62.08-3.77.19-6.03,3.73-11.3,8.56-15.53,14.21Z"/>
  </g>
  <path class="cls-1" d="m7.51,68.33c4.64-8.31,9.86-17.01,15.66-25.72,4.64,1.94,10.05,2.9,16.24,2.9,3.87,0,8.51-.38,13.73-1.35,14.31-2.51,24.75-7.73,31.52-15.66,2.9-3.29,3.86-6.96,3.09-11.02-1.16-6.19-6.19-9.28-15.27-9.28-5.61,0-12.37,1.58-20.3,5.06-5.61-5.22-12.18-8.09-19.72-8.09h0c-1.97,1-3.87,2.12-5.71,3.25,1.15-.11,2.42-.11,3.77-.11,6.77,0,12.95,2.17,18.75,6.61-1.35.58-3.09,1.57-5.22,2.73-8.7,5.03-16.63,12-24.17,20.7l-.77-.77c-4.84-4.83-7.35-8.31-7.74-10.63-.24-1.43-.28-2.82-.17-4.16-.9,1.2-1.74,2.44-2.54,3.71.79,4.98,4,9.4,9.66,13.4l-.19.2.19.19c-6.25,7.86-12.17,16.23-17.61,25.23.55,3.41,1.4,6.72,2.53,9.9,1.42-2.21,2.84-4.57,4.25-7.1ZM46.76,19.22c.39-.39.97-.77,1.74-.97-.19-.19-.39-.19-.58-.19.97-.39,1.94-.96,2.9-1.55,2.9,2.51,5.22,5.61,6.57,9.47.19.19.58,1.55,1.55,3.67.19-.19.19-.77.39-1.35-.19-4.25-2.13-8.7-5.61-13.15.19-.19,1.74-.97,4.64-1.93,5.22-1.94,9.09-2.9,11.79-2.9,7.15,0,10.63,3.29,10.63,9.86,0,4.84-2.71,9.28-8.31,13.73-8.31,6.57-19.33,9.86-33.26,9.86-5.99,0-11.02-.97-14.69-2.71,10.83-13.54,18.17-20.88,22.24-21.85Z"/>
  <path class="cls-1" d="m68.41,85.15c1.35-1.35,1.74-2.13,1.16-2.32-.39-.2-1.55.39-3.48,1.93-12.57,10.25-24.94,15.47-37.51,15.47-1.98,0-4.98-.32-8.95-.97,3.69,3.18,7.79,5.89,12.22,8.04,8.76-1.05,17.49-5.2,25.93-12.48,4.06-3.48,7.54-6.77,10.64-9.67Z"/>
  <path class="cls-1" d="m67.03,42.66c-2.22,0-4.88,1.46-8.1,4.43-1.96-.76-4.18-1.2-6.78-1.33-4.62-.19-9.24.63-13.93,2.6-5,2.02-8.74,4.81-11.27,8.36-1.33,1.9-2.09,3.93-2.22,6.08-.13,2.28.51,3.93,1.96,4.94,1.27.89,3.1,1.26,5.44,1.2,2.72-.06,5.32-.89,7.72-2.41,2.41-1.58,4.24-3.55,5.57-6.02.76-1.46,1.14-2.79,1.2-3.99.06-2.53-1.08-3.74-3.61-3.67-1.96.06-3.61,1.01-4.94,2.72-.76.95-1.01,1.52-.82,1.65.13-.19.51-.7,1.2-1.52,1.14-1.39,2.39-2.09,4.16-2.15,1.84-.06,2.58.95,2.58,2.91v.06c0,2.79-1.31,5.45-4.35,7.91-2.97,2.47-5.85,3.73-8.69,3.8-3.36.06-4.95-1.65-4.76-5.13.19-4.62,2.75-8.55,7.56-11.78,4.81-3.29,10.14-4.94,15.9-4.94,2.85,0,5.32.44,7.35,1.33-1.46,1.46-3.1,3.35-5.06,5.7-1.9,2.34-5.76,7.28-11.58,14.81-2.34,3.1-4.43,5.51-6.2,7.28l-4.05-.19c-8.42-.25-12.6.44-12.66,2.09.63-.44,2.03-.76,4.12-1.01,2.34-.31,6.2-.25,11.58.13-3.8,3.36-7.85,5.13-12.16,5.45.7.32,1.52.76,2.53.76,3.92,0,8.04-2.57,12.41-5.57h1.01c5.38,0,10.07-1.01,14.06-2.47,5-1.83,8.74-4.81,11.21-8.54,1.71-2.59,2.53-5.51,2.53-8.48,0-4.5-1.84-7.75-5.51-9.84,2.79-2.85,5.13-4.32,7.03-4.32,1.01,0,1.9.37,2.6,1.13-.7-1.33-1.71-1.97-3.04-1.97Zm-3.36,13.04c0,3.04-1.01,5.84-3.04,8.81-4.87,7.28-12.16,10.65-21.84,10.65h-.63c1.33-1,3.48-3.62,6.46-7.35.19-.19,2.66-3.36,7.41-9.82,2.98-3.99,5.57-7.09,7.79-9.5,2.6,1.65,3.86,4.11,3.86,7.21Z"/>
</svg>