<?xml version="1.0" encoding="utf-8"?>
<!-- Generator: Adobe Illustrator 27.2.0, SVG Export Plug-In . SVG Version: 6.00 Build 0)  -->
<svg version="1.1" id="Layer_1" xmlns="http://www.w3.org/2000/svg" xmlns:xlink="http://www.w3.org/1999/xlink" x="0px" y="0px"
	 viewBox="0 0 916.8 612.1" style="enable-background:new 0 0 916.8 612.1;" xml:space="preserve">
<style type="text/css">
	.st0{fill:#9E616A;}
	.st1{fill:#2F2E41;}
	.st2{fill:#FFB6B6;}
	.st3{fill:#348EC3;}
	.st4{fill:#F2F2F2;}
	.st5{fill:#FFFFFF;}
	.st6{fill:#F0F0F0;}
	.st7{fill:#3F3D56;}
	.st8{fill:#E6E6E6;}
	.st9{opacity:0.2;enable-background:new    ;}
	.st10{fill:#CCCCCC;}
</style>
<polygon class="st0" points="893.4,591.2 884.3,595.1 865.1,562 878.5,556.3 "/>
<polygon class="st0" points="818.5,599.8 808.7,599.8 804,561.8 818.5,561.8 "/>
<path class="st1" d="M818.9,610l-30.3,0v-0.4c0-6.5,5.3-11.8,11.8-11.8h0l5.5-4.2l10.3,4.2l2.6,0L818.9,610z"/>
<path class="st1" d="M898.9,597.8L871,609.6l-0.2-0.4c-2.6-6,0.2-12.9,6.2-15.5l0,0l3.4-6l11.1-0.2l2.4-1L898.9,597.8z"/>
<path class="st1" d="M808.9,375.1l-15,91.1l4.1,13.6l-5.3,9.6l7.8,84.4l-3.2,7l8.9,5.5h18.1l1-76.4l4.5-11.2v-6.2l9.1-46.6l1.7,53.3
	l2.6,11.2l-2.2,8l2.9,5.6l24.9,53.5h20.3l-1.6-12.1l0,0c3.6-1.8-5.5-7.2-6.3-11.2l3-6.7l-3-12.7l-2.7-24.8l2.9-52.4L880,387
	c-6.8-9.1-14.4-16.2-23.7-18.2L808.9,375.1z"/>
<circle id="e3f68381-4551-4dde-a951-c654c55667ae" class="st0" cx="845.3" cy="234.6" r="20.5"/>
<path class="st2" d="M760.7,396.6c-1-4.4,1.8-8.7,6.1-9.6c0.5-0.1,0.9-0.2,1.4-0.2l8.3-27.5l9.6,11.4l-9.3,24.3
	c-0.1,4.5-3.8,8-8.3,7.9C764.7,402.9,761.5,400.3,760.7,396.6L760.7,396.6z"/>
<path id="eb9b57ee-86ab-410d-b03f-f9f5ae1c3330-322" class="st3" d="M814.3,283.7l-3.7-6.8l-4.8,1.6c0,0-5.3,3.4-12.6,16.2
	c-3.4,5.9-10.8,44-10.8,44l-17.2,45.6l17.6,3l14.7-37.6l17-36L814.3,283.7z"/>
<path class="st3" d="M844.6,374.8c14.4,0,29,2.8,35,13c-0.2-2.2-0.5-6-1-9.6l-1.5-9.4l1.5-8.7l2-2l-3.6-3.6l2.4-18.1l8.1-42.6
	c1.3-6.9-2.2-13.8-8.5-16.8l-7.7-3.7l-12.6-11.7l-22.7-0.2l-7.4,9.6l-19.5,6.6l3.3,67.8l-2.1,5c0.5,0.4,1.5,1.4,2,2
	c0.8,0.9-0.2,5.3-0.9,7.9l-0.9,6.8l2.9,2l-3.7,4.4l-0.7,5.6C812.5,378.3,828.5,374.8,844.6,374.8z"/>
<path class="st1" d="M850.6,254.2c0.1-0.2,0.2-0.4,0.3-0.6c0,0-0.1,0-0.1,0L850.6,254.2z"/>
<path class="st1" d="M866.4,215.1c-1-0.9-2.2-1.5-3.6-1.5c-1.3,0-2.7,1.2-2.4,2.5c-5-8.9-15.7-12.9-25.4-9.5
	c-3.3,1.2-6.5,3.5-7.3,6.9c-0.1,0.9-0.3,1.8-0.8,2.5c-0.8,0.9-2,1.2-3.1,0.8l0,0c-0.5-0.2-1.1,0.1-1.2,0.6c-0.1,0.3-0.1,0.5,0.1,0.8
	l0.9,1.7c-1.2,0.3-2.4,0.2-3.6-0.1c-0.5-0.1-1,0.2-1.2,0.7c-0.1,0.3,0,0.6,0.2,0.8c3.1,4.3,8.1,6.9,13.5,6.9c3.7,0,7.5-1.3,11.1-0.5
	c5.2,1.2,8.4,6.4,7.2,11.6c-0.2,0.7-0.4,1.3-0.7,1.9c1.1-1.2,3.3-0.9,4.4,0.3c1.1,1.3,1.5,3,1.3,4.6c-0.3,2.5-1.1,5-2.2,7.2
	c11.9-0.4,21.2-10.3,20.9-22.2C874.3,224.9,871.3,219,866.4,215.1L866.4,215.1z"/>
<circle class="st3" cx="203.4" cy="87.5" r="51"/>
<path class="st4" d="M60.1,239.2C34.5,182.6,35.4,110.8,75.2,63.1c13.3,66.2,49.6,125.6,102.4,167.7c20.4,16.1,44.9,32,50.5,57.4
	c3.5,15.8-1.5,32.6-10,46.4c-8.5,13.8-20.4,25.1-32.1,36.3l-1.3,3.8C133.6,339.3,85.7,295.8,60.1,239.2z"/>
<path class="st5" d="M76.3,63.8c-9.1,50-2.4,103.3,19.9,149.2c4.8,9.9,10.5,19.6,18.2,27.5c7.7,8,16.9,13,27.4,16.1
	c9.7,2.8,19.9,4.6,28.7,9.7c9.3,5.4,15,14.4,17.3,24.8c2.7,12.7,0.8,25.6-1.6,38.2c-2.6,14-5.6,28.4-1.8,42.5
	c0.5,1.7-2.2,2.3-2.7,0.6c-6.7-24.4,6.3-48.5,4.5-73.1c-0.8-11.5-5.1-22.7-15-29.4c-8.6-5.8-19.1-7.6-28.9-10.4
	c-10.3-2.9-19.5-7.4-27.4-14.7c-8-7.5-14.2-17-19.2-26.7c-11.4-22-18.8-46.2-22.8-70.6c-4.6-28-4.3-56.6,0.8-84.6
	C74,61.2,76.6,62,76.3,63.8L76.3,63.8z"/>
<path class="st5" d="M88.1,198.4c-17.1,5.5-35.7-2.2-43.9-18.2c-0.8-1.6,1.6-2.9,2.4-1.3c7.6,14.9,24.9,22.1,40.9,16.9
	C89.2,195.2,89.8,197.9,88.1,198.4L88.1,198.4z"/>
<path class="st5" d="M136.7,255.8c8.3-15.8,10.3-34,5.7-51.2c-0.5-1.7,2.2-2.3,2.7-0.6c4.8,17.9,2.6,36.9-6.1,53.3
	C138.2,258.8,135.9,257.3,136.7,255.8L136.7,255.8z"/>
<path class="st5" d="M71.8,120.4c7-0.7,13.1-4.9,16.3-11.1c0.8-1.6,3.1-0.1,2.3,1.4c-3.6,6.8-10.3,11.5-18,12.3
	c-0.7,0.1-1.5-0.3-1.6-1C70.6,121.3,71.1,120.6,71.8,120.4L71.8,120.4z"/>
<path class="st4" d="M285.5,63.6c-0.5,1-1,2-1.4,3c-6.3,13.4-11.5,27.3-15.6,41.5c-0.3,1.1-0.7,2.2-1,3.3
	c-9.4,34.4-12.4,70.3-8.8,105.8c1.5,14.1,4,28.1,7.6,41.9c5,19,11.8,39.2,10.3,58.1c-0.1,2-0.4,3.9-0.8,5.9L189.4,376
	c-0.3,0-0.5,0.1-0.8,0.1l-3.4,2.3c-0.2-0.7-0.5-1.4-0.7-2.1c-0.1-0.4-0.3-0.8-0.4-1.2c-0.1-0.3-0.2-0.5-0.3-0.8
	c0-0.1-0.1-0.2-0.1-0.3c-0.1-0.2-0.2-0.5-0.2-0.7c-1.3-4.1-2.6-8.1-3.8-12.2c0,0,0,0,0-0.1c-9.3-31.2-16.2-63.5-17.9-95.7
	c-0.1-1-0.1-2-0.1-3c-0.7-14.5-0.2-29.1,1.5-43.6c1-7.9,2.3-15.8,4-23.6c4.5-20.1,12.2-39.4,22.8-57.1c21-35.3,53.1-63.5,92.3-73.7
	C283.5,64.1,284.5,63.9,285.5,63.6z"/>
<path class="st5" d="M286,64.8c-37.4,34.5-64.1,81.1-74,131.1c-2.1,10.8-3.4,22-2,32.9c1.3,11,5.6,20.5,12.2,29.4
	c6,8.1,13.1,15.6,17,25c4.2,9.9,3.3,20.6-1.1,30.2c-5.5,11.8-14.8,20.9-24.3,29.5c-10.5,9.6-21.6,19.3-27,32.8
	c-0.7,1.6-3.2,0.5-2.5-1.1c9.4-23.5,34.2-35,47.6-55.7c6.2-9.7,9.6-21.3,5.7-32.5c-3.4-9.8-10.7-17.6-16.8-25.7
	c-6.5-8.5-11.2-17.6-13-28.3c-1.9-10.9-1.1-22.1,0.8-32.9c4.2-24.4,12.8-48.2,24.3-70.1c13.2-25.1,30.7-47.8,51.6-67
	C285.7,61.4,287.2,63.7,286,64.8L286,64.8z"/>
<path class="st5" d="M214.3,179.5c-17-5.9-27.2-23.3-24.1-41c0.3-1.7,3-1.3,2.7,0.4c-2.9,16.5,6.6,32.7,22.5,38.1
	C217.1,177.6,216,180.1,214.3,179.5L214.3,179.5z"/>
<path class="st5" d="M218.6,254.5c16.1-7.6,28.7-21,35.4-37.5c0.7-1.6,3.2-0.5,2.5,1.1c-7,17.2-20.2,31-36.9,38.9
	C218,257.8,217,255.3,218.6,254.5L218.6,254.5z"/>
<path class="st5" d="M248.3,107.4c6,3.6,13.4,4,19.7,0.9c1.6-0.8,2.6,1.8,1,2.6c-7,3.3-15.1,2.9-21.8-1c-0.7-0.3-1-1.1-0.7-1.8
	C246.8,107.4,247.6,107.1,248.3,107.4L248.3,107.4z"/>
<path class="st4" d="M490.1,177.2c-25.6-56.6-24.6-128.4,15.1-176.1c13.3,66.2,49.6,125.6,102.4,167.7c20.4,16.1,44.9,32,50.5,57.4
	c3.5,15.8-1.5,32.6-10,46.4c-8.5,13.8-20.4,25.1-32.1,36.3l-1.3,3.8C563.6,277.3,515.7,233.8,490.1,177.2z"/>
<path class="st5" d="M506.3,1.8c-9.1,50-2.3,103.3,19.9,149.2c4.8,9.9,10.5,19.6,18.2,27.5c7.7,8,16.9,13,27.4,16.1
	c9.7,2.8,19.9,4.6,28.7,9.7c9.3,5.4,15,14.4,17.3,24.8c2.7,12.7,0.8,25.6-1.6,38.2c-2.6,14-5.6,28.4-1.8,42.5
	c0.5,1.7-2.2,2.3-2.7,0.6c-6.7-24.4,6.3-48.5,4.5-73.1c-0.8-11.5-5.1-22.7-15-29.4c-8.6-5.8-19.1-7.6-28.9-10.4
	c-10.3-2.9-19.5-7.4-27.4-14.7c-8-7.5-14.2-17-19.2-26.7c-11.4-22-18.8-46.2-22.8-70.6c-4.6-28-4.3-56.6,0.8-84.6
	C504-0.8,506.6,0,506.3,1.8L506.3,1.8z"/>
<path class="st5" d="M518.1,136.4c-17.1,5.5-35.7-2.2-43.9-18.2c-0.8-1.6,1.6-2.9,2.4-1.3c7.6,14.9,24.9,22.1,40.9,16.9
	C519.2,133.2,519.8,135.9,518.1,136.4L518.1,136.4z"/>
<path class="st5" d="M566.7,193.8c8.3-15.8,10.3-34,5.7-51.2c-0.5-1.7,2.2-2.3,2.7-0.6c4.8,17.9,2.6,36.9-6.1,53.3
	C568.2,196.8,565.9,195.3,566.7,193.8L566.7,193.8z"/>
<path class="st5" d="M501.8,58.4c7-0.7,13.1-4.9,16.3-11.1c0.8-1.6,3.1-0.1,2.3,1.4c-3.6,6.8-10.3,11.5-18,12.3
	c-0.7,0.1-1.5-0.3-1.6-1C500.6,59.3,501.1,58.6,501.8,58.4L501.8,58.4z"/>
<path class="st6" d="M715.5,1.6c-0.5,1-1,2-1.4,3c-6.3,13.4-11.5,27.3-15.6,41.5c-0.3,1.1-0.7,2.2-1,3.3
	c-9.4,34.4-12.4,70.3-8.8,105.8c1.5,14.1,4,28.1,7.6,41.9c5,19,11.8,39.2,10.3,58.1c-0.1,2-0.4,3.9-0.8,5.9L619.4,314
	c-0.3,0-0.5,0.1-0.8,0.1l-3.4,2.3c-0.2-0.7-0.5-1.4-0.7-2.1c-0.1-0.4-0.3-0.8-0.4-1.2c-0.1-0.3-0.2-0.5-0.3-0.8
	c0-0.1-0.1-0.2-0.1-0.3c-0.1-0.2-0.2-0.5-0.2-0.7c-1.3-4.1-2.6-8.1-3.8-12.2c0,0,0,0,0-0.1c-9.3-31.2-16.2-63.5-17.9-95.7
	c-0.1-1-0.1-2-0.1-3c-0.7-14.5-0.2-29.1,1.5-43.6c1-7.9,2.3-15.8,4-23.6c4.5-20.1,12.2-39.4,22.8-57.1c21-35.3,53.1-63.5,92.3-73.7
	C713.5,2.1,714.5,1.9,715.5,1.6z"/>
<path class="st5" d="M716,2.8c-37.4,34.5-64.1,81.1-74,131.1c-2.1,10.8-3.4,22-2,32.9c1.3,11,5.6,20.5,12.2,29.4
	c6,8.1,13.1,15.6,17,25c4.2,9.9,3.3,20.6-1.1,30.2c-5.5,11.8-14.8,20.9-24.3,29.5c-10.5,9.6-21.6,19.3-27,32.8
	c-0.7,1.6-3.2,0.5-2.5-1.1c9.4-23.5,34.2-35,47.6-55.7c6.2-9.7,9.6-21.3,5.7-32.5c-3.4-9.8-10.7-17.6-16.8-25.7
	c-6.5-8.5-11.2-17.6-13-28.3c-1.9-10.9-1.1-22.1,0.8-32.9c4.2-24.4,12.8-48.2,24.3-70.1c13.2-25.1,30.7-47.8,51.6-67
	C715.7-0.6,717.2,1.7,716,2.8z"/>
<path class="st5" d="M644.3,117.5c-17-5.9-27.2-23.3-24.1-41c0.3-1.7,3-1.3,2.7,0.4c-2.9,16.5,6.6,32.7,22.5,38.1
	C647.1,115.6,646,118.1,644.3,117.5L644.3,117.5z"/>
<path class="st5" d="M648.6,192.5c16.1-7.6,28.7-21,35.4-37.5c0.7-1.6,3.2-0.5,2.5,1.1c-7,17.2-20.2,31-36.9,38.9
	C648,195.8,647,193.3,648.6,192.5L648.6,192.5z"/>
<path class="st5" d="M678.3,45.4c6,3.6,13.4,4,19.7,0.9c1.6-0.8,2.6,1.8,1,2.6c-7,3.3-15.1,2.9-21.8-1c-0.7-0.3-1-1.1-0.7-1.8
	C676.8,45.4,677.6,45.1,678.3,45.4L678.3,45.4z"/>
<path class="st7" d="M163.9,597l9.4,7.3l36.7,6.4l40.8-101.5c0,0,25-78.2,95-62.2l225-4c0,0,69.1-7.1,80.5,25.5
	c2.2,6.2,60.5,142.5,60.5,142.5l40.9-5.8L747.9,489l-97.1-225.5l-168.9-10.5l-174,12L163.9,597z"/>
<circle class="st1" cx="350.9" cy="389" r="65"/>
<circle class="st1" cx="568.9" cy="389" r="65"/>
<path class="st8" d="M274.9,176l26.8-5.2c0,0,201.5-28.8,328.9,5.2l-9.6,27l-337-2L274.9,176z"/>
<path class="st3" d="M546.6,315.5h-171c-20.8,0-38.7-14.4-42.7-34.2l-18.7-93.6c-0.8-4.1,0.1-8.4,2.6-11.8c2.6-3.6,6.6-5.9,10.9-6.4
	c90.2-11.2,179.5-11.2,265.5-0.1c4.3,0.5,8.2,2.8,10.8,6.4c2.5,3.4,3.4,7.6,2.7,11.7l-17.3,93.3
	C585.7,300.9,567.7,315.5,546.6,315.5z"/>
<path class="st7" d="M198.9,191.2l0.7-13.4c0.2-4.2,2.5-8.1,6.1-10.3c10.8-6.6,39.9-21.2,77.1-13.6c5.3,1.1,9.4,5.4,10.2,10.8l1,7
	L198.9,191.2z"/>
<path class="st7" d="M723,191.2l-95.2-19.4l1.6-11.2c0.4-2.7,2.4-4.9,5-5.6c42.9-10.8,75.7,8.3,84.7,14.5c1.7,1.2,2.8,3.1,3,5.2
	L723,191.2z"/>
<path class="st8" d="M168.6,605.7c-2.3,0-4.5-0.6-6.5-1.8c-25.5-14.9-41.4-42.2-47.2-81c-4.8-32.1-2.8-72.4,6-119.8
	c15.5-84,48.1-168,61.3-200.2c3.6-8.6,11-15,20.1-17.3c27.4-6.7,75.1-18,87.6-18c17.1,0,26.3,16.1,26.4,16.3l0.1,0.1l15,65.1v0.9
	c8.3,28,2.1,48.3-4.5,60.3c-7.2,13.1-16.5,19.6-16.6,19.7c-14.6,11.1-38.4,47-62.1,93.5c-24.6,48.4-42.9,96.1-48.8,127.7
	c-7.3,38.6-18,50.5-25.6,53.6C172.2,605.4,170.4,605.7,168.6,605.7z"/>
<path class="st8" d="M541,307.5H379.4c-19.7,0-36.6-14-40.3-33.3l-17.7-91c-1.6-8.1,3.7-16,11.9-17.6c0.3-0.1,0.6-0.1,0.9-0.2
	c85.2-10.9,169.6-10.9,250.8-0.1c8.2,1.1,14,8.7,12.8,16.9c0,0.2-0.1,0.4-0.1,0.7l-16.3,90.8C577.9,293.2,560.9,307.5,541,307.5z"/>
<path class="st8" d="M753.2,605.7c-1.8,0-3.5-0.4-5.2-1c-7.7-3.1-18.3-15-25.6-53.6c-5.9-31.6-24.2-79.3-48.8-127.7
	c-23.7-46.5-47.5-82.4-62.1-93.5c-0.1-0.1-9.4-6.6-16.6-19.7c-6.6-12-12.8-32.3-4.5-60.3l0-1.1l15-65.1l0-0.1
	c0.1-0.2,9.3-16.3,26.4-16.3c12.5,0,60.2,11.3,87.6,18c9.1,2.2,16.5,8.7,20.1,17.3l0,0C752.9,235,785.4,319,801,403
	c8.8,47.4,10.8,87.7,6,119.8c-5.8,38.9-21.7,66.2-47.2,81.1C757.8,605.1,755.5,605.7,753.2,605.7z"/>
<circle class="st7" cx="350.9" cy="378" r="39"/>
<circle class="st1" cx="350.9" cy="378" r="26"/>
<circle class="st7" cx="568.9" cy="378" r="39"/>
<circle class="st1" cx="568.9" cy="378" r="26"/>
<circle class="st1" cx="435.9" cy="328" r="3"/>
<circle class="st1" cx="448.9" cy="328" r="3"/>
<circle class="st1" cx="442.9" cy="339" r="3"/>
<circle class="st1" cx="454.9" cy="339" r="3"/>
<circle class="st1" cx="466.9" cy="339" r="3"/>
<circle class="st1" cx="478.9" cy="339" r="3"/>
<circle class="st1" cx="461.9" cy="328" r="3"/>
<circle class="st1" cx="474.9" cy="328" r="3"/>
<circle class="st1" cx="487.9" cy="328" r="3"/>
<path class="st1" d="M473.9,420.5h-26c-2.5,0-4.5-2-4.5-4.5s2-4.5,4.5-4.5h26c2.5,0,4.5,2,4.5,4.5S476.4,420.5,473.9,420.5z"/>
<path class="st7" d="M301.8,224.9c-3.5,0-6.5-2.4-7.2-5.7l-4-16.9c-0.9-4,1.5-8,5.6-9c4-0.9,8,1.5,9,5.5l4,16.9c0.9,4-1.6,8-5.6,9
	C302.9,224.8,302.4,224.9,301.8,224.9z"/>
<path class="st7" d="M621.1,223.9c-4.1,0-7.5-3.3-7.5-7.5c0-0.6,0.1-1.1,0.2-1.7l4-16.9c0.9-4,5-6.5,9-5.5c4,0.9,6.5,5,5.5,9
	l-4,16.9C627.5,221.5,624.5,223.9,621.1,223.9z"/>
<path class="st7" d="M246.8,274.8c-2.5,0-4.8-0.8-6.9-2.2l-8.4-5.9c-3.2-2.2-5.1-5.9-5.1-9.8v-17.9c0-7.5,6.1-13.6,13.6-13.6h12.8
	c7.5,0,13.6,6.1,13.6,13.6v18.1c0,3.8-1.8,7.4-4.9,9.6l-7.7,5.7C251.8,274,249.3,274.8,246.8,274.8z"/>
<path class="st7" d="M252.8,340.5H240c-7.5,0-13.6-6.1-13.6-13.6v-17.9c0-3.9,1.9-7.6,5.1-9.8l8.4-5.9c4.2-2.9,9.8-2.9,14,0.2
	l7.7,5.7c3.1,2.3,4.9,5.8,4.9,9.6v18.1C266.4,334.4,260.3,340.5,252.8,340.5z"/>
<path class="st7" d="M292.8,303h-17.9c-3.9,0-7.6-1.9-9.8-5.1l-5.9-8.4c-2.9-4.2-2.9-9.8,0.2-14l5.7-7.7c2.3-3.1,5.8-4.9,9.6-4.9
	h18.1c7.5,0,13.6,6.1,13.6,13.6v12.8C306.4,296.9,300.3,303,292.8,303z"/>
<path class="st7" d="M217,303H199c-7.5,0-13.6-6.1-13.6-13.6v-12.8c0-7.5,6.1-13.6,13.6-13.6h18.1c3.8,0,7.4,1.8,9.6,4.9l5.7,7.7
	c3,4.1,3.1,9.7,0.2,14l-5.9,8.4C224.5,301.1,220.9,303,217,303z"/>
<circle class="st7" cx="675.9" cy="232" r="23"/>
<circle class="st7" cx="726.9" cy="285" r="23"/>
<circle class="st7" cx="675.9" cy="335" r="23"/>
<circle class="st7" cx="624.9" cy="284" r="23"/>
<path class="st8" d="M726.9,300c-8.3,0-15-6.7-15-15c0-8.3,6.7-15,15-15s15,6.7,15,15l0,0C741.9,293.3,735.2,300,726.9,300z
	 M726.9,272c-7.2,0-13,5.8-13,13s5.8,13,13,13s13-5.8,13-13C739.9,277.8,734.1,272,726.9,272z"/>
<path class="st8" d="M692,243.1l-30.1-0.4l15.4-25.9L692,243.1z M665.4,240.8l23.2,0.3l-11.3-20.3L665.4,240.8z"/>
<path class="st8" d="M636.9,296h-24v-24h24V296z M614.9,294h20v-20h-20V294z"/>
<polygon class="st8" points="688.3,345.3 677.4,334.3 687,324.7 685.6,323.2 675.9,332.9 666.2,323.2 664.8,324.7 674.5,334.3 
	663.5,345.3 664.9,346.7 675.9,335.7 686.9,346.7 "/>
<path class="st8" d="M246.7,73.8c-8.3,0-15-6.7-15-15s6.7-15,15-15s15,6.7,15,15C261.7,67.1,255,73.8,246.7,73.8z M246.7,45.8
	c-7.2,0-13,5.8-13,13s5.8,13,13,13s13-5.8,13-13C259.7,51.7,253.9,45.8,246.7,45.8z"/>
<path class="st8" d="M212.8,49l-30.1-0.4l15.4-25.9L212.8,49z M186.2,46.6l23.2,0.3L198,26.7L186.2,46.6z"/>
<path class="st8" d="M168.4,85.5h-24v-24h24V85.5z M146.4,83.5h20v-20h-20V83.5z"/>
<polygon class="st8" points="190.1,130.2 179.1,119.2 188.8,109.5 187.4,108.1 177.7,117.8 168,108.1 166.6,109.5 176.3,119.2 
	165.3,130.2 166.7,131.6 177.7,120.6 188.7,131.6 "/>
<polygon class="st9" points="867.4,344.5 828.6,373.7 872.4,354.5 "/>
<path class="st0" d="M794.9,380.4c0.9-4.4,5.2-7.2,9.5-6.3c0.5,0.1,0.9,0.2,1.4,0.4l18.8-21.7l4,14.4l-18.5,18.4
	c-1.9,4-6.8,5.7-10.8,3.8C795.9,387.8,794.1,384.1,794.9,380.4z"/>
<path id="fb39b7b9-f69c-40b6-9f40-8573a72b247d-323" class="st3" d="M878.8,285.1l7.7-0.4l1.2,4.9c0,0-0.1,6.3-7.1,19.3
	c-7,13-61.4,71-61.4,71l-11.8-13.4l29.1-30l17.6-31.4L878.8,285.1z"/>
<path id="b116d6b4-a736-490c-92f3-c8fac06531ff-324" class="st10" d="M1.2,612.1h914.3c0.7,0,1.2-0.6,1.2-1.2s-0.6-1.2-1.2-1.2H1.2
	c-0.7,0-1.2,0.6-1.2,1.2S0.6,612.1,1.2,612.1L1.2,612.1z"/>
</svg>
