<?xml version="1.0" encoding="utf-8"?>
<!-- Generator: Adobe Illustrator 27.2.0, SVG Export Plug-In . SVG Version: 6.00 Build 0)  -->
<svg version="1.1" id="Layer_1" xmlns="http://www.w3.org/2000/svg" xmlns:xlink="http://www.w3.org/1999/xlink" x="0px" y="0px"
	 viewBox="0 0 751.1 556.4" style="enable-background:new 0 0 751.1 556.4;" xml:space="preserve">
<style type="text/css">
	.st0{fill:#E6E6E6;}
	.st1{fill:#348EC3;}
	.st2{fill:#3F3D56;}
	.st3{fill:#9E616A;}
	.st4{fill:#2F2E41;}
	.st5{fill:#F2F2F2;}
	.st6{fill:#CCCCCC;}
	.st7{fill:#FFFFFF;}
	.st8{fill:#CACACA;}
</style>
<path class="st0" d="M680.2,553.8H520.9l0,0V549c0-8.8,7.2-16,16-16h127.3c8.8,0,16,7.2,16,16V553.8L680.2,553.8z"/>
<path class="st0" d="M596.8,533.9l4.8-2c-50.7-125.8-45.8-284.5-3-420.6c10.4-32.2,0.7-67.6-24.8-89.9C549-0.8,514.8-6.2,484.4,7.3
	c-29.9,13.3-34.1,36.5-34.1,59.6h5.2c0-24.6,5.3-43.4,31-54.8c28.4-12.6,60.6-7.6,83.9,13.2c23.9,21,33,54.2,23.3,84.5
	C550.4,247.5,545.8,407.3,596.8,533.9z"/>
<circle class="st0" cx="454.3" cy="125.6" r="18.3"/>
<path class="st0" d="M426.2,157.5v-34.6h5.4v34.6c3.7,1.5,5.5,5.7,4,9.3c-1.5,3.7-5.7,5.5-9.3,4c-3.7-1.5-5.5-5.7-4-9.3
	C422.9,159.7,424.4,158.2,426.2,157.5z"/>
<path class="st1" d="M400.1,96.3c0-16.6,13.5-30,30-30h49.6c16.6,0,30,13.4,30,30c0,16.6-13.4,30-30,30h-49.6
	C413.6,126.3,400.1,112.8,400.1,96.3z"/>
<path class="st2" d="M330.2,282.2c5-63.7,30.4-94.1,14.1-113.1c-15.6-18.2-59.6-14.5-87.9,3c-76.2,47.2-104.1,235.3-6.1,327.2
	c93.2,87.3,269.8,59.4,309.1-12.1c9.2-16.7,16.4-45.9,3-63.6c-33.3-44-154.3,35.7-208.1-14.1C322.6,380,327.5,317.2,330.2,282.2z"/>
<path class="st3" d="M388.5,250.6c-3.8,1.8-5.6,6.3-3.9,10.2c0.2,0.4,0.4,0.7,0.6,1.1l-16.4,21.8l8.2,12.2l19.2-32.3
	c2.8-2.2,3.8-6,2.4-9.2c-1.7-3.8-6.1-5.5-9.8-3.8c0,0,0,0,0,0C388.6,250.5,388.6,250.5,388.5,250.6z"/>
<path class="st1" d="M388.5,288.2c1.1,0.9-1.9,2.1-5,0.3c-0.9-0.5-1.3-0.8-1.4-0.6c-0.3,0.4,1.2,3,0.8,8.7c-0.2,3.5-6,9.9-12.5,16.3
	c-8.8,8.6-19,16.8-19,16.8l-3.6-2.9L310,296.6l-6.4-8.8c0.6-3.5,1.5-6.9,2.6-10.2c1.6-4.6,3.5-9.1,5.7-13.5c1.2-2.4,2.4-4.6,3.5-6.7
	l20.2,22.3l16.9,18.6c0,0,4.9-7.9,8.7-10.1c0.5-0.3,1-0.5,1.6-0.6c3.9-0.2,4.1-2.3-0.4-6.9c-4.5-4.6,1.2-0.3,5.2-1.5
	c4-1.2,0,0,0.8-3.1c0.8-3.1,12-9.3,12-9.3l0.5,0.4l8.4,7.4l2.4,2.1c0,0-2.6,7.2-3.4,8.8C387.8,287.2,387.4,287.3,388.5,288.2z"/>
<polygon class="st3" points="610.8,428.5 611.2,417.4 568.4,410.5 567.8,426.9 "/>
<path class="st4" d="M603,431.9l-0.4-17.8l7.6,0.3l12.3-16.5c1.6-2.1,4.6-2.5,6.7-1c1.3,0.9,2,2.4,1.9,4l-0.8,21.2l-0.2,5.1l-0.3,8
	L603,431.9z"/>
<path class="st4" d="M697.9,293.6"/>
<path class="st4" d="M370.1,432.9l135.5,3.4c0,0,58.5,3.4,72.2-5.6l14.5-1.8l0.8-21.3c0,0-8.9,0.1-13.9-2.3s-1.6-5.3-6.4-2.4
	s-4.3,3.2-8.1,1.9s-175.8-27.5-175.8-27.5L370.1,432.9z"/>
<polygon class="st3" points="548.6,423.6 556.5,415.7 529.8,381.6 518.2,393.2 "/>
<path class="st4" d="M540.6,416.8l11.8-13.4l5.4,5.4l20.2-3.7c2.6-0.5,5.1,1.2,5.5,3.8c0.3,1.5-0.2,3.1-1.3,4.2l-15,15l-7.9-2.7
	l4.3,6.3l-5.6,5.7L540.6,416.8z"/>
<path class="st4" d="M316.6,358.7l1.3,31.3c1.6,36.9,42.2,59.2,73.7,39.9c0.6-0.4,1.2-0.7,1.7-1.1c0.9-0.6,11.9-3.2,11.6-8.3
	s2.6-7.5,5.1-6.2s36.4-46.6,36.4-46.6s70.2,35,85.7,43.2c0,0,14.6-22.8,13.5-22.5s-86.8-59.8-86.8-59.8s-14-14.1-31.3-4.8
	c-0.4,1.4-0.1,1.4-0.1,1.4L370.1,372l-8.1-15.4L316.6,358.7z"/>
<path class="st1" d="M370.6,319.5c-0.1,1.4-0.3,2.9-0.6,4.3c-0.4,2.1-1.1,4-2,5.9c0,0,0,2.1-4,9.2s1,4,4,9.3c3,5.2,0,2.8-3.4,6.2
	c-2,2-2.7,4.9-1.9,7.6c0,0-43.4,0-51.5-3s-9.9-20.1-2.7-21.8c7.2-1.7-2.2-3.4-6.4-7.3c-4.3-3.9,4.3-10.3,4.3-10.3s-3.5-6-3.2-26.4
	c0-1.9,0.2-3.7,0.5-5.6c0.6-3.5,1.5-6.9,2.6-10.2c1.6-4.6,3.5-9.1,5.7-13.5c1.2-2.4,2.4-4.6,3.5-6.7c0.2-0.3,0.4-0.6,0.5-0.9
	c2.2-3.9,4.2-7,5.5-9.1c1-1.6,1.6-2.5,1.6-2.5l7.4-12.8l24.5,11.5l-1.4,18.8l4.2,14.2l1.9,6.5l1.5,5l2.3,7.8c0,0-0.6,0,0.1,1.1
	c3.5,4.6,5.8,10.1,6.6,15.8C370.7,315.1,370.7,317.3,370.6,319.5z"/>
<path class="st4" d="M441.5,321.5l-0.5-0.1l-58.7-18.9l21.6-71c1.6-5.2,7-8.1,12.2-6.5c0.7,0.2,1.5,0.5,2.1,0.9l37.5,22.2
	c6.1,3.6,8.8,11.1,6.3,17.8L441.5,321.5z"/>
<path class="st1" d="M441.7,326.1L382.5,307l21.6-71c1.6-5.2,7-8.1,12.2-6.5c0.7,0.2,1.5,0.5,2.1,0.9l39.3,19.6
	c5.9,3.5,5.8,12.5,3,19.9L441.7,326.1z"/>
<path class="st2" d="M435.8,331.2c-2.8,1.6-6,1.9-9,0.9l-37.8-12.2c-6-2-9.4-8.4-7.6-14.5l19-62.3c1.6-5.2,7-8.1,12.2-6.5
	c0.1,0,0.1,0,0.2,0.1l39.2,12.9c7.7,2.5,11.9,10.9,9.4,18.6c0,0.1-0.1,0.3-0.1,0.4l-20.3,56.6C440,327.7,438.1,329.9,435.8,331.2z"
	/>
<circle class="st3" cx="353.7" cy="205.2" r="27.1"/>
<path class="st2" d="M289.8,356.7c0.6-0.4,1.2-0.8,1.8-1.1c10.4-5.2,42.6-18.6,67.9-18c48.5,1.1,110.3,54.6,96,90.6
	c-10.9,27.4-65.3,43-105,30.5C294.8,441.2,272.9,370.2,289.8,356.7z"/>
<path class="st5" d="M88.3,553.9c-15.9-3-29.9-74.5,1.3-109.7c10.7-12.1,24-17.3,41.8-22.2c102.1-28.1,180-1.3,190.5,5.2
	c10.4,6.5,28.8,104.9,5.3,118.8c-13.2,7.8-39.3,11.7-52.2,2.6c-19-13.4,12.9-48.3-1.3-71.8c-16.1-26.6-101.1-35.6-143.7-9.1
	C84.5,496,178.2,570.9,88.3,553.9z"/>
<path class="st6" d="M194.4,432.4h-60.6c-15-14.3-25.7-28.2-17.1-39.6c0-6.9,5.6-12.4,12.4-12.4H199c6.9,0,12.4,5.6,12.4,12.4
	C214.7,405.9,208.9,419.1,194.4,432.4z"/>
<path class="st6" d="M183.5,364.7c-1.5,0.1-2.9-1.1-2.9-2.7c0-0.8,0.3-1.6,0.9-2.2l0.2-0.8c0-0.1-0.1-0.1-0.1-0.2
	c-1.6-3.8-6-5.6-9.9-4c-1.8,0.8-3.3,2.2-4,4.1c-2.3,5.5-5.2,11-5.9,16.8c-0.3,2.6-0.2,5.2,0.4,7.7c-5.3-11.7-8.1-24.3-8.1-37.1
	c0-3.2,0.2-6.4,0.5-9.6c0.3-2.6,0.7-5.2,1.2-7.8c2.9-14,9-27.2,17.9-38.3c4.3-2.4,7.8-6,10-10.4c0.8-1.6,1.4-3.3,1.7-5
	c-0.5,0.1-1.8-7.4-1.5-7.8c-0.7-1-1.9-1.5-2.6-2.5c-3.7-5-8.8-4.1-11.4,2.7c-5.7,2.9-5.7,7.6-2.2,12.2c2.2,2.9,2.5,6.8,4.5,9.9
	c-0.2,0.3-0.4,0.5-0.6,0.8c-3.7,4.7-6.8,9.7-9.5,15.1c0.6-6-0.1-12-2.3-17.6c-2.2-5.2-6.2-9.6-9.8-14.1c-4.3-5.4-13.1-3.1-13.8,3.8
	c0,0.1,0,0.1,0,0.2c0.5,0.3,1,0.6,1.6,1c1.7,1.2,2.2,3.5,1.1,5.3c-0.6,0.9-1.5,1.5-2.6,1.6l-0.1,0c0.2,1.9,0.5,3.8,1,5.7
	c-4.6,17.7,5.3,24.2,19.4,24.5c0.3,0.2,0.6,0.3,0.9,0.5c-2.7,7.6-4.4,15.5-5,23.5c-0.4,4.7-0.3,9.5,0.1,14.2l0-0.2
	c-1-5.3-3.8-10-8-13.4c-6.1-5-14.8-6.9-21.4-10.9c-2-1.3-4.7-0.7-6,1.3c-0.6,0.9-0.8,1.9-0.7,2.9c0,0.1,0,0.1,0,0.2
	c1,0.4,1.9,0.9,2.9,1.4c0.5,0.3,1,0.6,1.6,1c1.7,1.2,2.2,3.5,1.1,5.3c-0.6,0.9-1.5,1.5-2.6,1.6l-0.1,0c-0.1,0-0.1,0-0.2,0
	c1.7,4,4,7.7,7,10.9c2.9,15.5,15.2,16.9,28.3,12.4h0c1.4,6.3,3.5,12.4,6.2,18.2h22.3c0.1-0.2,0.2-0.5,0.2-0.8
	c-2.1,0.1-4.1,0-6.2-0.4c1.7-2,3.3-4.1,5-6.1c0,0,0.1-0.1,0.1-0.1c0.8-1,1.7-2.1,2.5-3.1l0,0C184.6,371,184.2,367.8,183.5,364.7
	L183.5,364.7z"/>
<path class="st6" d="M259.5,429.2c0.8,2.2,2.9,3.7,5.2,3.6l22.2-0.6c2.4,0,4.4-1.6,5-3.9l3.1-33.6c1.1,0.5,2.3,0.8,3.6,0.7
	c4.5-0.1,8-3.8,7.9-8.3s-3.8-8-8.3-7.9c-0.5,0-1,0-1.5,0.2c-1.1-1.1-2.5-1.8-4.1-1.8l-34.2,0.9c-0.3,0-0.6,0-0.8,0.1
	c-2.9,0.5-4.8,3.3-4.3,6.2c0,0.2,0.1,0.5,0.2,0.7L259.5,429.2z M295.7,392.4l2.2-8c0.3-0.9,0.3-1.9,0-2.8c0.1,0,0.2-0.1,0.3-0.1
	c3.2-0.1,5.8,2.5,5.9,5.7c0.1,3.2-2.5,5.8-5.6,5.9C297.6,393.1,296.6,392.9,295.7,392.4L295.7,392.4z"/>
<path class="st7" d="M257.7,378.6c0.7,4.2,8.9,7.1,18.8,6.6c9.1-0.4,16.5-3.6,17.8-7.4c-0.5-0.1-1-0.2-1.5-0.2l-34.2,0.9
	C258.2,378.5,257.9,378.5,257.7,378.6z"/>
<path class="st8" d="M1.2,555.5l748.8,0.3c0.7,0,1.2-0.5,1.2-1.2c0-0.7-0.5-1.2-1.2-1.2L1.2,553.1c-0.7,0-1.2,0.5-1.2,1.2
	C0,555,0.5,555.5,1.2,555.5C1.2,555.5,1.2,555.5,1.2,555.5z"/>
<path class="st3" d="M421.1,289.4c-4.2,0.2-7.6,3.7-7.5,7.9c0,0.4,0.1,0.8,0.1,1.2l-23.5,13.9l2.8,14.4l30.1-22.5
	c3.4-0.9,5.8-4.1,5.7-7.6c-0.1-4.1-3.5-7.4-7.6-7.3c0,0,0,0,0,0C421.3,289.4,421.2,289.4,421.1,289.4z"/>
<path class="st1" d="M401.9,322.5c-0.6-0.8-0.9-1.2-1-1.1c-0.4,0.2,0,3.2-2.6,8.4c-3.6,7.3-41.8,18.4-41.8,18.4l-4.7-8.6L331,301.8
	l-7.1-30.3c-0.2-1.1-0.4-2.1-0.4-3.2c6.4-4.5,13.1-8.4,20.2-11.6c2.8,1.6,5,4.2,6.1,7.2l14.2,39.9l5.7,15.9c0,0,10-7.2,13.7-5.9
	c3.6,1.3,4.7-0.5,2.3-6.5c-2.4-5.9,1.2,0.2,5.3,0.6c4.2,0.4,0,0,2-2.5c2-2.5,14.6-3.9,14.6-3.9l0.3,0.6l4.9,10.1l1.4,2.9
	c0,0-5.2,5.7-6.5,6.8c-1.3,1.1-1.7,1.1-1,2.3C407.3,325.5,404.1,325.4,401.9,322.5z"/>
<path class="st4" d="M331.1,211.2l1.9,0.4c0,0,3.2-11.1,5.3-8.8c2.1,2.3,7.5,3,7.5,3l1.9-3.6c0,0,10.1-0.3,11.7-4.4
	c0,0,21.4,0.9,15.4-9.1c-6-10-7.9-7.9-7.9-7.9s-5.9-3.1-7.2-6.1c-1.3-3.1-14.2-5.7-21.8,0.7C310.1,199.1,331.1,211.2,331.1,211.2
	L331.1,211.2L331.1,211.2z"/>
</svg>
