<?xml version="1.0" encoding="utf-8"?>
<!-- Generator: Adobe Illustrator 27.2.0, SVG Export Plug-In . SVG Version: 6.00 Build 0)  -->
<svg version="1.1" id="Layer_1" xmlns="http://www.w3.org/2000/svg" xmlns:xlink="http://www.w3.org/1999/xlink" x="0px" y="0px"
	 viewBox="0 0 731.7 668.5" style="enable-background:new 0 0 731.7 668.5;" xml:space="preserve">
<style type="text/css">
	.st0{fill:#9E616A;}
	.st1{fill:#348EC3;}
	.st2{fill:#2F2E41;}
	.st3{fill:#F2F2F2;}
	.st4{fill:#3F3D56;}
</style>
<g>
	<path class="st0" d="M421.4,228.7c0,0-0.3,13-24,32l-5.4,9.6l50.2,29c4.5,0.2,9.6,1.4,14.7,3.6c13.1,5.8,21.1,16.5,17.9,23.8
		s-16.5,8.5-29.6,2.7c-2.9-1.3-5.5-2.8-7.8-4.4c-17.2-4.3-93.7-24.9-85.3-48.4c9.5-26.4,18.9-57.3,18.9-57.3L421.4,228.7
		L421.4,228.7L421.4,228.7z"/>
	<path class="st1" d="M379.7,181.1c3-9.9,10.2-17.9,19.9-21.8c9.6-3.9,20.3-3.3,29.4,1.7c8.8,4.9,15,13.3,17,23.1
		c2,9.9-0.4,20-6.6,27.9l-20.9,26.6l-52.8-11.2L379.7,181.1L379.7,181.1L379.7,181.1z"/>
	<path class="st2" d="M488.7,279.7c-15.2-5.5-31.2-8.1-47.9-8.3c-1.7-0.3-3.4,0.9-3.7,2.6l-1.8,10.4c-0.3,1.7,0.9,3.4,2.6,3.7
		c6.5,3.9,13.1,6.2,19.8,7.5l-6.9,40.1c-7.8-1.5-15-1.9-21-0.3c-1.7-0.3-3.4,0.9-3.7,2.6l-1.8,10.4c-0.3,1.7,0.9,3.4,2.6,3.7
		c13.6,4.9,30.1,7.2,47.9,8.3c1.7,0.3,3.4-0.9,3.7-2.6l1.8-10.4c0.3-1.7-0.9-3.4-2.6-3.7c-6.9-2.5-13.6-4.8-20-6.4l7-40.6
		c7,0.7,14,0.4,21.1-0.2c1.7,0.3,3.4-0.9,3.7-2.6l1.8-10.4C491.6,281.6,490.5,280,488.7,279.7L488.7,279.7L488.7,279.7z"/>
</g>
<path class="st3" d="M275.5,624.8l-46.8-47.9l33.8-48.3l9.2,0.6c4.9,0.3,9.1-3.4,9.4-8.2l1.7-24.7c0.4-5.1-3.7-9.5-8.8-9.5h-86
	c0.7-1.7,0.9-3.5,0.5-5.4l-51.3-227c-1-4.4-5.1-7.3-9.6-6.9l-20.3,2.1c-5.3,0.6-8.9,5.6-7.7,10.8l54.9,244.1
	c1.2,5.5,6.9,8.1,11.6,6.4c-0.3,0.7-0.4,1.5-0.5,2.2l-7.3,0.6l-124,138h38l96-107l92,107h30l1-18L275.5,624.8L275.5,624.8
	L275.5,624.8z M185.6,523.5l50.3,3.3l-19.7,37.2l-28.7-29.3L185.6,523.5L185.6,523.5L185.6,523.5z"/>
<path class="st4" d="M0,652c0,0.7,0.5,1.2,1.2,1.2h729.3c0.7,0,1.2-0.5,1.2-1.2s-0.5-1.2-1.2-1.2H1.2C0.5,650.8,0,651.4,0,652z"/>
<circle class="st0" cx="435.8" cy="63" r="41"/>
<polygon class="st0" points="357.5,585.8 357.5,626.8 326.5,627.8 327.8,585.8 "/>
<path class="st2" d="M348.4,621.5l-0.1,0.2l-0.2,0c-0.8,0.2-18.4,4-23.5-3.2c-0.4-0.6-0.8-0.8-1.1-0.7c-3.4,1.1-6,26.7-6,36.4
	c0,5.7,12.8,7.2,29,9.1c7.6,0.9,16.1,1.9,24.6,3.4c18.5,3.4,33.7-5,41.1-10.4c1.3-1,2.1-2.4,2.2-4c0.1-1.6-0.5-3.2-1.8-4.3
	c-9.8-8.8-42.2-37.7-47.8-39.3c-0.4-0.1-0.8-0.2-1.2-0.2C357.2,608.5,348.5,621.4,348.4,621.5L348.4,621.5L348.4,621.5z"/>
<polygon class="st0" points="415.5,585.8 415.5,626.8 384.5,627.8 385.8,585.8 "/>
<polygon class="st2" points="428,292.2 444.5,304.8 447.5,445.8 419.5,599.8 383,601.2 382,454.2 335,320.2 344.5,288.8 "/>
<polygon class="st2" points="351,316.2 335,320.2 323.5,599.8 365,596.2 392.5,398.8 "/>
<path class="st2" d="M428.9,667.7c-8.5-1.6-17-2.5-24.5-3.4c-17.3-2-29.9-3.5-29.9-10.1c0-5,1.9-35.8,6.7-37.4
	c0.5-0.2,1.3-0.1,2.2,1.1c4.5,6.3,20.4,3.2,22.3,2.8c1.2-1.8,10.5-15,17.4-13c5.4,1.5,31.9,24.9,47.2,38.7c1.7,1.5,2.6,3.7,2.4,6
	c-0.1,2.3-1.3,4.3-3.2,5.6c-6.2,4.2-17.7,10.5-32,10.5C434.9,668.5,431.9,668.3,428.9,667.7L428.9,667.7L428.9,667.7z"/>
<polygon class="st0" points="390.9,114.1 399.9,84.1 438.9,93.9 437.3,126.6 "/>
<path class="st1" d="M344.4,289.2l-0.4-0.1l6.9-108.4c1.4-22.4,9.5-43.5,23.5-61.1l17.1-21.6l54.4,30.2l0.2,0.1l12,64.2l0,0.1
	l-13,112.1l-0.1,0.4L344.4,289.2L344.4,289.2L344.4,289.2z"/>
<path class="st4" d="M400.2,85l3.5,0.8c0,0,6-23.7,10-18.7c4,4.9,14.2,6.4,14.2,6.4l3.5-7.7c0,0,19-0.7,22.1-9.4
	c0,0,40.3,1.9,29-19.5C471.2,15.5,467.6,20,467.6,20s-11-6.5-13.5-13.1s-26.8-12.3-41.1,1.6C360.6,59.3,400.2,85,400.2,85L400.2,85
	L400.2,85z"/>
<g>
	<g>
		
			<rect x="492.4" y="238.1" transform="matrix(0.9838 -0.1791 0.1791 0.9838 -38.5768 93.0423)" class="st4" width="7" height="44"/>
		<path class="st4" d="M476.4,288.6c10.8-7.4,28.6-8.6,47.8-8.7c1.7-0.3,3.4,0.8,3.7,2.6l1.9,10.4c0.3,1.7-0.8,3.4-2.6,3.7
			c-17.1,5.1-33.4,8.6-47.8,8.7c-1.7,0.3-3.4-0.8-3.7-2.6l-1.9-10.4C473.5,290.6,474.6,288.9,476.4,288.6L476.4,288.6z"/>
		<path class="st4" d="M464.7,224.6c15.7-5.6,31.6-8.6,47.8-8.7c1.7-0.3,3.4,0.8,3.7,2.6l1.9,10.4c0.3,1.7-0.8,3.4-2.6,3.7
			c-14.8,7.1-30.1,12-47.8,8.7c-1.7,0.3-3.4-0.8-3.7-2.6l-1.9-10.4C461.8,226.6,463,225,464.7,224.6L464.7,224.6L464.7,224.6z"/>
	</g>
	<path class="st0" d="M431.7,191.3c0,0,4.2,12.3-11.6,38.3l-1.7,10.9l57.1,9.9c4.3-1.4,9.5-2,15-1.6c14.3,0.9,25.5,8.2,25,16.2
		s-12.6,13.7-26.9,12.8c-3.1-0.2-6.1-0.7-8.9-1.5c-17.6,1.9-96.6,8.9-96.7-16.1c-0.1-28.1-2-60.3-2-60.3L431.7,191.3L431.7,191.3
		L431.7,191.3z"/>
	<path class="st1" d="M376.2,160.9c-0.6-10.4,3.5-20.3,11.1-27.3c7.7-7,18-10.1,28.2-8.5c9.9,1.5,18.7,7.3,23.9,15.9
		s6.5,19,3.4,28.5l-10.5,32.2l-53.5,7.6L376.2,160.9L376.2,160.9L376.2,160.9z"/>
</g>
<g>
	
		<rect x="138.4" y="606.1" transform="matrix(4.152684e-02 -0.9991 0.9991 4.152684e-02 -455.332 744.4938)" class="st4" width="44" height="7"/>
	<path class="st4" d="M135.1,633c12.1-4.9,29.8-2.1,48.6,2c1.8,0.1,3.1,1.6,3.1,3.3l-0.4,10.6c-0.1,1.8-1.6,3.1-3.3,3.1
		c-17.8,1.2-34.4,1.1-48.6-2c-1.8-0.1-3.1-1.6-3.1-3.3l0.4-10.6C131.8,634.3,133.3,632.9,135.1,633z"/>
	<path class="st4" d="M137.8,568.1c16.5-2,32.7-1.4,48.6,2c1.8,0.1,3.1,1.6,3.1,3.3L189,584c-0.1,1.8-1.6,3.1-3.3,3.1
		c-16,3.7-32.1,5.1-48.6-2c-1.8-0.1-3.1-1.6-3.1-3.3l0.4-10.6C134.5,569.4,136,568,137.8,568.1z"/>
</g>
</svg>
